<?xml version="1.0" encoding="utf-8"?>
<!-- Generator: Adobe Illustrator 24.3.0, SVG Export Plug-In . SVG Version: 6.00 Build 0)  -->
<svg version="1.1" id="Layer_1" xmlns="http://www.w3.org/2000/svg" xmlns:xlink="http://www.w3.org/1999/xlink" x="0px" y="0px"
	 viewBox="0 0 122 122" style="enable-background:new 0 0 122 122;" xml:space="preserve">
<style type="text/css">
	.st0{opacity:0.1;fill:url(#SVGID_1_);enable-background:new    ;}
	.st1{fill:url(#SVGID_2_);}
	.st2{opacity:0.5;fill-rule:evenodd;clip-rule:evenodd;fill:#9818D6;enable-background:new    ;}
</style>
<linearGradient id="SVGID_1_" gradientUnits="userSpaceOnUse" x1="61" y1="107.8897" x2="61" y2="-0.1102" gradientTransform="matrix(1 0 0 -1 0 121.8898)">
	<stop  offset="0.1" style="stop-color:#19191B;stop-opacity:0"/>
	<stop  offset="1" style="stop-color:#19191B"/>
</linearGradient>
<path class="st0" d="M58.9,14C30,14.8,6,31.5,3.3,52.9C2.7,57.2,3,61.3,4.1,65.3c0,0,0.1,0.5,0.4,1.4c0.9,3,2.2,5.8,3.9,8.5
	c5.8,10.2,19.3,27.3,49.4,46c1.8,1.2,4.6,1.2,6.4,0c30.2-18.6,43.6-35.7,49.5-46c1.7-2.7,3-5.6,3.9-8.5c0.3-0.9,0.4-1.4,0.4-1.4
	c0.7-2.7,1-5.4,1-8.2C119,32.8,91.9,13.2,58.9,14z M61,78.5c-15.6,0-28.2-9.4-28.2-20.9S45.4,36.7,61,36.7S89.2,46,89.2,57.6
	S76.6,78.5,61,78.5z"/>
<linearGradient id="SVGID_2_" gradientUnits="userSpaceOnUse" x1="100.5146" y1="58.7228" x2="17.9494" y2="63.3248" gradientTransform="matrix(1 0 0 -1 0 121.8898)">
	<stop  offset="0" style="stop-color:#9818D6"/>
	<stop  offset="1" style="stop-color:#A100FF"/>
</linearGradient>
<path class="st1" d="M59.3,0C35,0.9,14.9,19.8,12.6,43.9c-0.5,4.8-0.2,9.5,0.7,14c0,0,0.1,0.5,0.3,1.5c0.8,3.4,1.9,6.6,3.3,9.7
	C21.7,80.7,33,100,58.3,121c1.6,1.3,3.8,1.3,5.4,0c25.3-21,36.6-40.3,41.5-52c1.4-3.1,2.5-6.3,3.3-9.7c0.2-1,0.3-1.5,0.3-1.5
	c0.6-3,0.9-6.1,0.9-9.2C109.7,21.2,86.9-0.9,59.3,0z M61,72.9c-13.1,0-23.6-10.6-23.6-23.6S47.9,25.6,61,25.6s23.6,10.6,23.6,23.6
	S74,72.9,61,72.9z"/>
<path class="st2" d="M29,49c0,17.7,14.3,32,32,32c17.7,0,32-14.3,32-32S78.7,17,61,17C43.3,17,29,31.3,29,49z M37.4,49.2
	c0,13.1,10.6,23.6,23.6,23.6s23.6-10.6,23.6-23.6S74,25.6,61,25.6S37.4,36.2,37.4,49.2z"/>
</svg>
