<?xml version="1.0" encoding="utf-8"?>
<!-- Generator: Adobe Illustrator 24.3.0, SVG Export Plug-In . SVG Version: 6.00 Build 0)  -->
<svg version="1.1" id="Layer_1" xmlns="http://www.w3.org/2000/svg" xmlns:xlink="http://www.w3.org/1999/xlink" x="0px" y="0px"
	 viewBox="0 0 512 512" style="enable-background:new 0 0 512 512;" xml:space="preserve">
<style type="text/css">
	.st0{fill:#9818D6;}
</style>
<g>
	<path class="st0" d="M512,145.2V116c0-1.2-0.2-2.4-0.6-3.5l-30-80c-1.5-3.9-5.2-6.5-9.4-6.5H40c-4.2,0-7.9,2.6-9.4,6.5l-30,80
		C0.2,113.6,0,114.8,0,116v29.2c0,17.3,10.8,32.1,26,38V376c0,16.5,13.5,30,30,30h143.4l-7.3,60H161c-5.5,0-10,4.5-10,10
		s4.5,10,10,10h180c5.5,0,10-4.5,10-10s-4.5-10-10-10h-31.1l-7.3-60h104.1l4.9,13.2c1.8,5.8,6.2,10.1,11.8,11.6
		c5.8,1.5,12-0.2,16.2-4.4l7.4-7.4l17,17c3.2,3.2,7.4,4.9,11.9,4.9s8.7-1.7,11.9-4.9l19.3-19.3c6.6-6.6,6.6-17.2,0-23.8l-17-17
		l7.4-7.4c4.1-4.1,5.8-10,4.5-15.7c-1.3-5.6-5.4-10.1-10.9-12l-5-1.9V183.2C501.2,177.3,512,162.5,512,145.2L512,145.2z M492,117.8
		v27.4c0,11.4-9.3,20.8-20.8,20.8s-20.8-9.3-20.8-20.8V116c0-0.9-0.1-1.8-0.4-2.7L431.2,46h33.9L492,117.8z M81.5,117.4L101.6,46
		H136l-12.8,68.2c-0.1,0.6-0.2,1.2-0.2,1.8v29.2c0,11.4-9.3,20.8-20.8,20.8s-20.8-9.3-20.8-20.8L81.5,117.4L81.5,117.4z M143,116.9
		L156.3,46H191l-6.5,69.1c0,0.3,0,0.6,0,0.9v29.2c0,11.4-9.3,20.8-20.8,20.8s-20.8-9.3-20.8-20.8V116.9z M204.5,116.5l6.6-70.5H246
		v99.3c0,11.4-9.3,20.8-20.8,20.8s-20.8-9.3-20.8-20.8V116.5z M266,46h34.9l6.6,70.5v28.8c0,11.4-9.3,20.8-20.8,20.8
		s-20.8-9.3-20.8-20.8V46z M327.5,115.1L321,46h34.7l13.3,70.9v28.3c0,11.4-9.3,20.8-20.8,20.8s-20.8-9.3-20.8-20.8V116
		C327.5,115.7,327.5,115.4,327.5,115.1L327.5,115.1z M388.8,114.2L376,46h34.4l20.1,71.4v27.9c0,11.4-9.3,20.8-20.8,20.8
		s-20.8-9.3-20.8-20.8V116C389,115.4,388.9,114.8,388.8,114.2z M20,117.8L46.9,46h33.9l-18.9,67.3c-0.2,0.9-0.4,1.8-0.4,2.7v29.2
		c0,11.4-9.3,20.8-20.8,20.8S20,156.7,20,145.2L20,117.8z M289.8,466h-77.5l7.3-60h63L289.8,466z M490.7,404.9l-14.8,14.8
		l-21.8-21.8c-2-2-4.5-2.9-7.1-2.9s-5.1,1-7.1,2.9l-10.9,10.9l-29.6-80.3l80.3,29.6l-10.9,10.9c-1.9,1.9-2.9,4.4-2.9,7.1
		s1.1,5.2,2.9,7.1L490.7,404.9z M399.7,307.2c-0.1,0-0.2-0.1-0.2-0.1c-6.1-2.1-12.7-0.5-17.2,4c-4.5,4.5-6.1,11.1-4.1,17.2
		c0,0.1,0.1,0.2,0.1,0.3l6.4,17.4H296c-5.5,0-10,4.5-10,10s4.5,10,10,10h96l7.4,20H56c-5.5,0-10-4.5-10-10v-10h160
		c5.5,0,10-4.5,10-10s-4.5-10-10-10H46V185.6c10.1-1.3,19.1-6.3,25.5-13.7c7.5,8.6,18.5,14,30.8,14s23.3-5.4,30.8-14
		c7.5,8.6,18.5,14,30.8,14s23.3-5.4,30.8-14c7.5,8.6,18.5,14,30.8,14s23.3-5.4,30.8-14c7.5,8.6,18.5,14,30.8,14s23.3-5.4,30.8-14
		c7.5,8.6,18.5,14,30.8,14s23.3-5.4,30.8-14c7.5,8.6,18.5,14,30.8,14s23.3-5.4,30.8-14c6.4,7.3,15.4,12.4,25.5,13.7v146L399.7,307.2
		z"/>
	<path class="st0" d="M271,216c-5.5,0-10,4.5-10,10v60c0,5.5-4.5,10-10,10s-10-4.5-10-10v-60c0-5.5-4.5-10-10-10s-10,4.5-10,10v60
		c0,16.5,13.5,30,30,30s30-13.5,30-30v-60C281,220.5,276.5,216,271,216z"/>
	<path class="st0" d="M176,216h-20c-5.5,0-10,4.5-10,10v80c0,5.5,4.5,10,10,10h20c16.5,0,30-13.5,30-30c0-7.7-2.9-14.7-7.7-20
		c4.8-5.3,7.7-12.3,7.7-20C206,229.5,192.5,216,176,216z M176,236c5.5,0,10,4.5,10,10s-4.5,10-10,10h-10v-20H176z M176,296h-10v-20
		h10c5.5,0,10,4.5,10,10S181.5,296,176,296z"/>
	<path class="st0" d="M346,216c-5.5,0-10,4.5-10,10v28.6c0,5.5-4.5,10-10,10s-10-4.5-10-10V226c0-5.5-4.5-10-10-10s-10,4.5-10,10
		v28.6c0,13,8.4,24.2,20,28.3V306c0,5.5,4.5,10,10,10s10-4.5,10-10v-23.1c11.6-4.1,20-15.2,20-28.3V226C356,220.5,351.5,216,346,216
		z"/>
	<path class="st0" d="M251,346L251,346c-5.5,0-10,4.5-10,10s4.5,10,10,10s10-4.5,10-10S256.5,346,251,346z"/>
</g>
</svg>
