<?xml version="1.0" encoding="utf-8"?>
<!-- Generator: Adobe Illustrator 24.3.0, SVG Export Plug-In . SVG Version: 6.00 Build 0)  -->
<svg version="1.1" id="Layer_1" xmlns="http://www.w3.org/2000/svg" xmlns:xlink="http://www.w3.org/1999/xlink" x="0px" y="0px"
	 viewBox="0 0 512 512" style="enable-background:new 0 0 512 512;" xml:space="preserve">
<style type="text/css">
	.st0{fill:#9818D6;}
</style>
<path class="st0" d="M37,145.2c5.5,0,10-4.5,10-10V94c0-5.5,4.5-10,10-10h54.6c0.7,8.4,7.8,15,16.4,15h138.1c8.6,0,15.6-6.6,16.4-15
	H337c5.5,0,10,4.5,10,10v135.3c0,5.5,4.5,10,10,10s10-4.5,10-10V94c0-16.5-13.5-30-30-30h-55.3c-3.4-15.3-17.1-26.8-33.4-26.8h-9.5
	C236.3,16.3,218.5,0,197,0s-39.3,16.3-41.8,37.2h-9.5c-16.3,0-30,11.5-33.4,26.8H57c-16.5,0-30,13.5-30,30v41.2
	C27,140.8,31.5,145.2,37,145.2z M131.5,71.4c0-7.9,6.4-14.3,14.3-14.3h19.2c5.5,0,10-4.5,10-10v-5.1c0-12.2,9.9-22.1,22.1-22.1
	s22.1,9.9,22.1,22.1v5.1c0,5.5,4.5,10,10,10h19.2c7.9,0,14.3,6.4,14.3,14.3V79h-131V71.4z"/>
<path class="st0" d="M37,185.3c2.6,0,5.2-1.1,7.1-2.9c1.9-1.9,2.9-4.4,2.9-7.1s-1.1-5.2-2.9-7.1c-1.9-1.9-4.4-2.9-7.1-2.9
	s-5.2,1.1-7.1,2.9c-1.9,1.9-2.9,4.4-2.9,7.1c0,2.6,1.1,5.2,2.9,7.1S34.4,185.3,37,185.3z"/>
<path class="st0" d="M152.5,259c-3.9-3.9-10.2-3.9-14.1,0l-31,31l-9.3-9.3c-3.9-3.9-10.2-3.9-14.1,0c-3.9,3.9-3.9,10.2,0,14.1
	l16.4,16.4c2,2,4.5,2.9,7.1,2.9s5.1-1,7.1-2.9l38.1-38.1C156.4,269.2,156.4,262.9,152.5,259z"/>
<path class="st0" d="M191.8,294c-5.5,0-10,4.5-10,10s4.5,10,10,10h50.8c5.5,0,10-4.5,10-10s-4.5-10-10-10H191.8z"/>
<path class="st0" d="M303.3,264c0-5.5-4.5-10-10-10H191.8c-5.5,0-10,4.5-10,10s4.5,10,10,10h101.6C298.8,274,303.3,269.5,303.3,264z
	"/>
<path class="st0" d="M138.3,347l-31,31l-9.3-9.3c-3.9-3.9-10.2-3.9-14.1,0s-3.9,10.2,0,14.1l16.4,16.4c2,2,4.5,2.9,7.1,2.9
	s5.1-1,7.1-2.9l38.1-38.1c3.9-3.9,3.9-10.2,0-14.1C148.6,343.1,142.2,343.1,138.3,347z"/>
<path class="st0" d="M242.5,402c5.5,0,10-4.5,10-10s-4.5-10-10-10h-50.8c-5.5,0-10,4.5-10,10s4.5,10,10,10H242.5z"/>
<path class="st0" d="M237.3,217.2c25.4,0,46-20.6,46-46s-20.6-46-46-46h-12.5c-5.5,0-10,4.5-10,10v72c0,5.5,4.5,10,10,10H237.3z
	 M234.9,145.2h2.5c14.3,0,26,11.7,26,26s-11.7,26-26,26h-2.5V145.2z"/>
<path class="st0" d="M181.5,210.4c1.4,4.2,5.3,6.8,9.5,6.8c1.1,0,2.1-0.2,3.2-0.5c5.2-1.8,8.1-7.4,6.3-12.7l-24.2-72
	c-1.4-4.1-5.2-6.8-9.5-6.8s-8.1,2.7-9.5,6.8l-24.2,72c-1.8,5.2,1.1,10.9,6.3,12.7c5.2,1.8,10.9-1.1,12.7-6.3l0.7-2.2h28L181.5,210.4
	z M159.5,188.2l7.3-21.6l7.3,21.6H159.5z"/>
<path class="st0" d="M379,300c-34.5,0-65.1,16.5-84.5,42.1c-0.4,0-0.8-0.1-1.2-0.1H191.8c-5.5,0-10,4.5-10,10s4.5,10,10,10h90.8
	c-6.1,13.4-9.6,28.3-9.6,44c0,10.4,1.5,20.5,4.3,30H57c-5.5,0-10-4.5-10-10V215.2c0-5.5-4.5-10-10-10s-10,4.5-10,10V426
	c0,16.5,13.5,30,30,30h228.6c17.9,33.3,53.1,56,93.4,56c58.4,0,106-47.6,106-106S437.4,300,379,300z M379,492c-47.4,0-86-38.6-86-86
	s38.6-86,86-86s86,38.6,86,86S426.4,492,379,492z"/>
<path class="st0" d="M404.9,376.9l-39,39l-16.4-16.4c-3.9-3.9-10.2-3.9-14.1,0c-3.9,3.9-3.9,10.2,0,14.1l23.5,23.5
	c2,2,4.5,2.9,7.1,2.9s5.1-1,7.1-2.9l46.1-46.1c3.9-3.9,3.9-10.2,0-14.1C415.1,373,408.8,373,404.9,376.9z"/>
<path class="st0" d="M357,259.3c-2.6,0-5.2,1.1-7.1,2.9c-1.9,1.9-2.9,4.4-2.9,7.1c0,2.6,1.1,5.2,2.9,7.1s4.4,2.9,7.1,2.9
	s5.2-1.1,7.1-2.9c1.9-1.9,2.9-4.4,2.9-7.1c0-2.6-1.1-5.2-2.9-7.1C362.2,260.4,359.6,259.3,357,259.3z"/>
</svg>
