<?xml version="1.0" encoding="utf-8"?>
<!-- Generator: Adobe Illustrator 24.3.0, SVG Export Plug-In . SVG Version: 6.00 Build 0)  -->
<svg version="1.1" id="Layer_1" xmlns="http://www.w3.org/2000/svg" xmlns:xlink="http://www.w3.org/1999/xlink" x="0px" y="0px"
	 viewBox="0 0 40 40" style="enable-background:new 0 0 40 40;" xml:space="preserve">
<style type="text/css">
	.st0{opacity:5.000000e-02;fill-rule:evenodd;clip-rule:evenodd;fill:#9818D6;enable-background:new    ;}
	.st1{opacity:5.000000e-02;fill:#9818D6;enable-background:new    ;}
	.st2{fill:#9818D6;}
</style>
<path class="st0" d="M1,10l19-8l19,8l-19,8L1,10z M20,11c1.1,0,2-0.4,2-1c0-0.6-0.9-1-2-1s-2,0.4-2,1C18,10.5,18.9,11,20,11z"/>
<path class="st1" d="M7.5,24v-8.5l12.5,5l12.5-5V24c-1.9,4.9-9,6-12.5,6S10.7,28.4,7.5,24z"/>
<path class="st2" d="M28.2,34.7c-0.4-0.1-0.7,0.1-0.8,0.5l-0.7,2.7c-0.1,0.4,0.1,0.7,0.5,0.8c0.1,0,0.1,0,0.2,0
	c0.3,0,0.6-0.2,0.6-0.5l0.7-2.7C28.7,35.1,28.5,34.7,28.2,34.7z"/>
<path class="st2" d="M20,21.3c0.1,0,0.2,0,0.3-0.1l7.3-3c0.3-0.1,0.5-0.5,0.4-0.9c-0.1-0.3-0.5-0.5-0.9-0.4L20,19.9L1.3,12.2V12
	c0-0.4-0.3-0.7-0.7-0.7C0.3,11.3,0,11.6,0,12v0.7c0,0.3,0.2,0.5,0.4,0.6l19.3,8C19.8,21.3,19.9,21.3,20,21.3z"/>
<path class="st2" d="M27.9,28.1c-0.2-0.3-0.6-0.5-0.9-0.3c-1.3,0.6-3.4,1.4-6.4,1.5v-6c0-0.4-0.3-0.7-0.7-0.7
	c-0.4,0-0.7,0.3-0.7,0.7v6C11.1,29,8.4,24,8,23.2v-4.5C8,18.3,7.7,18,7.3,18s-0.7,0.3-0.7,0.7v4.7c0,0.1,0,0.2,0,0.2
	c0.1,0.3,3,7.1,13.3,7.1c3.6,0,6.1-0.9,7.6-1.6C28,28.9,28.1,28.5,27.9,28.1z"/>
<path class="st2" d="M30,35.3c-0.4,0-0.7,0.3-0.7,0.7v2c0,0.4,0.3,0.7,0.7,0.7c0.4,0,0.7-0.3,0.7-0.7v-2
	C30.7,35.6,30.4,35.3,30,35.3z"/>
<path class="st2" d="M39.3,11.3c-0.4,0-0.7,0.3-0.7,0.7v0.2l-8,3.3v-1.2l8.9-3.7c0.2-0.1,0.4-0.3,0.4-0.6c0-0.3-0.2-0.5-0.4-0.6
	l-19.3-8c-0.2-0.1-0.3-0.1-0.5,0l-19.3,8C0.2,9.5,0,9.7,0,10c0,0.3,0.2,0.5,0.4,0.6l19.3,8c0.1,0,0.2,0.1,0.3,0.1
	c0.1,0,0.2,0,0.3-0.1l7-2.9c0.3-0.1,0.5-0.5,0.4-0.9c-0.1-0.3-0.5-0.5-0.9-0.4L20,17.2L2.4,10L20,2.7L37.6,10l-7.7,3.2l-7.3-2.7
	c0-0.1,0.1-0.3,0.1-0.4c0-1.1-1.2-2-2.7-2c-1.5,0-2.7,0.9-2.7,2c0,1.1,1.2,2,2.7,2c0.7,0,1.3-0.2,1.7-0.5l7.6,2.8v2.1v0v14.3
	c-0.8,0.3-1.3,1-1.3,1.9c0,1.1,0.9,2,2,2s2-0.9,2-2c0-0.9-0.6-1.6-1.3-1.9V27c1.9-1.4,2.6-3.4,2.6-3.5c0-0.1,0-0.1,0-0.2v-4.7
	c0-0.4-0.3-0.7-0.7-0.7c-0.4,0-0.7,0.3-0.7,0.7v4.5c-0.1,0.3-0.5,1.2-1.3,2v-8.3l8.9-3.7c0.3-0.1,0.4-0.3,0.4-0.6V12
	C40,11.6,39.7,11.3,39.3,11.3z M20,10.6c-0.8,0-1.3-0.4-1.3-0.7c0-0.3,0.5-0.7,1.3-0.7s1.3,0.4,1.3,0.7C21.3,10.2,20.8,10.6,20,10.6
	z M30,33.3c-0.4,0-0.7-0.3-0.7-0.7c0-0.4,0.3-0.7,0.7-0.7s0.7,0.3,0.7,0.7C30.7,33,30.4,33.3,30,33.3z"/>
<path class="st2" d="M32.6,35.1c-0.1-0.4-0.5-0.6-0.8-0.5c-0.4,0.1-0.6,0.5-0.5,0.8l0.7,2.7c0.1,0.3,0.3,0.5,0.6,0.5
	c0.1,0,0.1,0,0.2,0c0.4-0.1,0.6-0.5,0.5-0.8L32.6,35.1z"/>
</svg>
