<?xml version="1.0" encoding="utf-8"?>
<!-- Generator: Adobe Illustrator 24.3.0, SVG Export Plug-In . SVG Version: 6.00 Build 0)  -->
<svg version="1.1" id="Layer_1" xmlns="http://www.w3.org/2000/svg" xmlns:xlink="http://www.w3.org/1999/xlink" x="0px" y="0px"
	 viewBox="0 0 40 40" style="enable-background:new 0 0 40 40;" xml:space="preserve">
<style type="text/css">
	.st0{fill:#FFFFFF;}
</style>
<path class="st0" d="M5,33c0,0.6,0.4,1,1,1s1-0.4,1-1H5z M25,5c-0.6,0-1,0.4-1,1s0.4,1,1,1V5z M34,7c0.6,0,1-0.4,1-1s-0.4-1-1-1V7z
	 M25,14c-0.6,0-1,0.4-1,1s0.4,1,1,1V14z M34,16c0.6,0,1-0.4,1-1s-0.4-1-1-1V16z M25,9.5c-0.6,0-1,0.4-1,1c0,0.6,0.4,1,1,1V9.5z
	 M34,11.5c0.6,0,1-0.4,1-1c0-0.6-0.4-1-1-1V11.5z M11,18.5c-0.6,0-1,0.4-1,1s0.4,1,1,1V18.5z M34,20.5c0.6,0,1-0.4,1-1s-0.4-1-1-1
	V20.5z M11,23c-0.6,0-1,0.4-1,1s0.4,1,1,1V23z M34,25c0.6,0,1-0.4,1-1s-0.4-1-1-1V25z M11,27.5c-0.6,0-1,0.4-1,1s0.4,1,1,1V27.5z
	 M34,29.5c0.6,0,1-0.4,1-1s-0.4-1-1-1V29.5z M11,32c-0.6,0-1,0.4-1,1s0.4,1,1,1V32z M24,34c0.6,0,1-0.4,1-1s-0.4-1-1-1V34z M8,2h29
	V0H8V2z M38,3v34h2V3H38z M37,38H3v2h34V38z M2,37V9H0v28H2z M7,33V7H5v26H7z M7,7V3H5v4H7z M3,8h3V6H3V8z M10,8v5h2V8H10z M13,16h5
	v-2h-5V16z M21,13V8h-2v5H21z M18,5h-5v2h5V5z M25,7h9V5h-9V7z M25,16h9v-2h-9V16z M25,11.5h9v-2h-9V11.5z M11,20.5h23v-2H11V20.5z
	 M11,25h23v-2H11V25z M11,29.5h23v-2H11V29.5z M11,34h13v-2H11V34z M21,8c0-1.7-1.3-3-3-3v2c0.6,0,1,0.4,1,1H21z M18,16
	c1.7,0,3-1.3,3-3h-2c0,0.6-0.4,1-1,1V16z M10,13c0,1.7,1.3,3,3,3v-2c-0.6,0-1-0.4-1-1H10z M12,8c0-0.6,0.4-1,1-1V5c-1.7,0-3,1.3-3,3
	H12z M2,9c0-0.6,0.4-1,1-1V6C1.3,6,0,7.3,0,9H2z M3,38c-0.6,0-1-0.4-1-1H0c0,1.7,1.3,3,3,3V38z M38,37c0,0.6-0.4,1-1,1v2
	c1.7,0,3-1.3,3-3H38z M37,2c0.6,0,1,0.4,1,1h2c0-1.7-1.3-3-3-3V2z M8,0C6.3,0,5,1.3,5,3h2c0-0.6,0.4-1,1-1V0z"/>
</svg>
