<?xml version="1.0" encoding="utf-8"?>
<!-- Generator: Adobe Illustrator 24.3.0, SVG Export Plug-In . SVG Version: 6.00 Build 0)  -->
<svg version="1.1" id="Capa_1" xmlns="http://www.w3.org/2000/svg" xmlns:xlink="http://www.w3.org/1999/xlink" x="0px" y="0px"
	 viewBox="0 0 512 512" style="enable-background:new 0 0 512 512;" xml:space="preserve">
<style type="text/css">
	.st0{fill:#9818D6;}
</style>
<path class="st0" d="M119.8,351.9c-1.9-1.9-4.4-2.9-7.1-2.9c-2.6,0-5.2,1.1-7.1,2.9c-1.9,1.9-2.9,4.4-2.9,7.1c0,2.6,1.1,5.2,2.9,7.1
	c1.9,1.9,4.4,2.9,7.1,2.9s5.2-1.1,7.1-2.9c1.9-1.9,2.9-4.4,2.9-7.1S121.6,353.8,119.8,351.9z"/>
<path class="st0" d="M167.5,351.9c-1.9-1.9-4.4-2.9-7.1-2.9c-2.6,0-5.2,1.1-7.1,2.9c-1.9,1.9-2.9,4.4-2.9,7.1s1.1,5.2,2.9,7.1
	c1.9,1.9,4.4,2.9,7.1,2.9c2.6,0,5.2-1.1,7.1-2.9c1.9-1.9,2.9-4.4,2.9-7.1S169.4,353.8,167.5,351.9z"/>
<path class="st0" d="M215.3,351.9c-1.9-1.9-4.4-2.9-7.1-2.9c-2.6,0-5.2,1.1-7.1,2.9c-1.9,1.9-2.9,4.4-2.9,7.1s1.1,5.2,2.9,7.1
	c1.9,1.9,4.4,2.9,7.1,2.9c2.6,0,5.2-1.1,7.1-2.9c1.9-1.9,2.9-4.4,2.9-7.1S217.2,353.8,215.3,351.9z"/>
<path class="st0" d="M263.1,351.9c-1.9-1.9-4.4-2.9-7.1-2.9s-5.2,1.1-7.1,2.9s-2.9,4.4-2.9,7.1s1.1,5.2,2.9,7.1
	c1.9,1.9,4.4,2.9,7.1,2.9s5.2-1.1,7.1-2.9c1.9-1.9,2.9-4.4,2.9-7.1S264.9,353.8,263.1,351.9z"/>
<path class="st0" d="M310.8,351.9c-1.9-1.9-4.4-2.9-7.1-2.9s-5.2,1.1-7.1,2.9c-1.9,1.9-2.9,4.4-2.9,7.1c0,2.6,1.1,5.2,2.9,7.1
	c1.9,1.9,4.4,2.9,7.1,2.9s5.2-1.1,7.1-2.9c1.9-1.9,2.9-4.4,2.9-7.1S312.7,353.8,310.8,351.9z"/>
<path class="st0" d="M358.6,351.9c-1.9-1.9-4.4-2.9-7.1-2.9c-2.6,0-5.2,1.1-7.1,2.9c-1.9,1.9-2.9,4.4-2.9,7.1s1.1,5.2,2.9,7.1
	c1.9,1.9,4.4,2.9,7.1,2.9c2.6,0,5.2-1.1,7.1-2.9c1.9-1.9,2.9-4.4,2.9-7.1S360.5,353.8,358.6,351.9z"/>
<path class="st0" d="M406.4,351.9c-1.9-1.9-4.4-2.9-7.1-2.9s-5.2,1.1-7.1,2.9c-1.9,1.9-2.9,4.4-2.9,7.1s1.1,5.2,2.9,7.1
	c1.9,1.9,4.4,2.9,7.1,2.9s5.2-1.1,7.1-2.9c1.9-1.9,2.9-4.4,2.9-7.1S408.2,353.8,406.4,351.9z"/>
<path class="st0" d="M119.8,440.9c-1.9-1.9-4.4-2.9-7.1-2.9c-2.6,0-5.2,1.1-7.1,2.9c-1.9,1.9-2.9,4.4-2.9,7.1s1.1,5.2,2.9,7.1
	c1.9,1.9,4.4,2.9,7.1,2.9s5.2-1.1,7.1-2.9c1.9-1.9,2.9-4.4,2.9-7.1S121.6,442.8,119.8,440.9z"/>
<path class="st0" d="M167.5,440.9c-1.9-1.9-4.4-2.9-7.1-2.9c-2.6,0-5.2,1.1-7.1,2.9c-1.9,1.9-2.9,4.4-2.9,7.1s1.1,5.2,2.9,7.1
	c1.9,1.9,4.4,2.9,7.1,2.9c2.6,0,5.2-1.1,7.1-2.9c1.9-1.9,2.9-4.4,2.9-7.1S169.4,442.8,167.5,440.9z"/>
<path class="st0" d="M304,438h-95.8c-5.5,0-10,4.5-10,10s4.5,10,10,10H304c5.5,0,10-4.5,10-10S309.5,438,304,438z"/>
<path class="st0" d="M358.6,440.9c-1.9-1.9-4.4-2.9-7.1-2.9c-2.6,0-5.2,1.1-7.1,2.9c-1.9,1.9-2.9,4.4-2.9,7.1s1.1,5.2,2.9,7.1
	c1.9,1.9,4.4,2.9,7.1,2.9c2.6,0,5.2-1.1,7.1-2.9c1.9-1.9,2.9-4.4,2.9-7.1S360.5,442.8,358.6,440.9z"/>
<path class="st0" d="M406.4,440.9c-1.9-1.9-4.4-2.9-7.1-2.9s-5.2,1.1-7.1,2.9c-1.9,1.9-2.9,4.4-2.9,7.1c0,2.6,1.1,5.2,2.9,7.1
	c1.9,1.9,4.4,2.9,7.1,2.9s5.2-1.1,7.1-2.9c1.9-1.9,2.9-4.4,2.9-7.1S408.2,442.8,406.4,440.9z"/>
<path class="st0" d="M71.1,396.4c-1.9-1.9-4.4-2.9-7.1-2.9s-5.2,1.1-7.1,2.9s-2.9,4.4-2.9,7.1s1.1,5.2,2.9,7.1
	c1.9,1.9,4.4,2.9,7.1,2.9c2.6,0,5.2-1.1,7.1-2.9c1.9-1.9,2.9-4.4,2.9-7.1S72.9,398.3,71.1,396.4z"/>
<path class="st0" d="M119.1,396.4c-1.9-1.9-4.4-2.9-7.1-2.9s-5.2,1.1-7.1,2.9s-2.9,4.4-2.9,7.1s1.1,5.2,2.9,7.1
	c1.9,1.9,4.4,2.9,7.1,2.9s5.2-1.1,7.1-2.9c1.9-1.9,2.9-4.4,2.9-7.1S120.9,398.3,119.1,396.4z"/>
<path class="st0" d="M167.1,396.4c-1.9-1.9-4.4-2.9-7.1-2.9s-5.2,1.1-7.1,2.9s-2.9,4.4-2.9,7.1c0,2.6,1.1,5.2,2.9,7.1
	c1.9,1.9,4.4,2.9,7.1,2.9c2.6,0,5.2-1.1,7.1-2.9c1.9-1.9,2.9-4.4,2.9-7.1S168.9,398.3,167.1,396.4z"/>
<path class="st0" d="M215.1,396.4c-1.9-1.9-4.4-2.9-7.1-2.9s-5.2,1.1-7.1,2.9s-2.9,4.4-2.9,7.1s1.1,5.2,2.9,7.1
	c1.9,1.9,4.4,2.9,7.1,2.9s5.2-1.1,7.1-2.9c1.9-1.9,2.9-4.4,2.9-7.1S216.9,398.3,215.1,396.4z"/>
<path class="st0" d="M263.1,396.4c-1.9-1.9-4.4-2.9-7.1-2.9s-5.2,1.1-7.1,2.9s-2.9,4.4-2.9,7.1s1.1,5.2,2.9,7.1
	c1.9,1.9,4.4,2.9,7.1,2.9s5.2-1.1,7.1-2.9c1.9-1.9,2.9-4.4,2.9-7.1S264.9,398.3,263.1,396.4z"/>
<path class="st0" d="M311.1,396.4c-1.9-1.9-4.4-2.9-7.1-2.9s-5.2,1.1-7.1,2.9c-1.9,1.9-2.9,4.4-2.9,7.1s1.1,5.2,2.9,7.1
	c1.9,1.9,4.4,2.9,7.1,2.9s5.2-1.1,7.1-2.9c1.9-1.9,2.9-4.4,2.9-7.1S312.9,398.3,311.1,396.4z"/>
<path class="st0" d="M359.1,396.4c-1.9-1.9-4.4-2.9-7.1-2.9s-5.2,1.1-7.1,2.9c-1.9,1.9-2.9,4.4-2.9,7.1s1.1,5.2,2.9,7.1
	c1.9,1.9,4.4,2.9,7.1,2.9s5.2-1.1,7.1-2.9c1.9-1.9,2.9-4.4,2.9-7.1S360.9,398.3,359.1,396.4z"/>
<path class="st0" d="M407.1,396.4c-1.9-1.9-4.4-2.9-7.1-2.9s-5.2,1.1-7.1,2.9c-1.9,1.9-2.9,4.4-2.9,7.1s1.1,5.2,2.9,7.1
	c1.9,1.9,4.4,2.9,7.1,2.9s5.2-1.1,7.1-2.9c1.9-1.9,2.9-4.4,2.9-7.1S408.9,398.3,407.1,396.4z"/>
<path class="st0" d="M455.1,396.4c-1.9-1.9-4.4-2.9-7.1-2.9s-5.2,1.1-7.1,2.9c-1.9,1.9-2.9,4.4-2.9,7.1s1.1,5.2,2.9,7.1
	c1.9,1.9,4.4,2.9,7.1,2.9s5.2-1.1,7.1-2.9c1.9-1.9,2.9-4.4,2.9-7.1S456.9,398.3,455.1,396.4z"/>
<path class="st0" d="M482.5,233.2h9.6c0.8,4.7,4.9,8.4,9.9,8.4c5.5,0,10-4.5,10-10v-16.7c0-5.5-4.5-10-10-10c-5,0-9.1,3.6-9.9,8.4
	h-9.6v-1.5c0-14.6-11.9-26.5-26.5-26.5h-29.5v-76.8h54c5.5,0,10-4.5,10-10V42.1c0-23.2-18.8-42.1-42-42.1H128.6
	c-23.2,0-42,18.8-42,42v143.2H56.5c-14.6,0-26.5,11.9-26.5,26.5v1.5H19.9c-0.8-4.7-4.9-8.4-9.9-8.4c-5.5,0-10,4.5-10,10v16.7
	c0,5.5,4.5,10,10,10c5,0,9.1-3.6,9.9-8.4H30v1.5c0,4.8,1.3,9.3,3.6,13.2C13.7,258.1,0,278.9,0,302.7V474c0,21,17,38,38,38h436
	c21,0,38-17,38-38V302.7c0-23.7-13.5-44.3-33.2-54.6c2.3-3.9,3.7-8.5,3.7-13.4V233.2z M426.5,42.1c0-12.2,9.9-22.1,22-22.1
	s22,9.9,22,22.1v46.3h-44V42.1z M426.5,205.2H456c3.6,0,6.5,2.9,6.5,6.5v23c0,3.6-2.9,6.5-6.5,6.5h-5.2c-0.1,0-0.2,0-0.3,0h-24
	L426.5,205.2L426.5,205.2z M106.6,42c0-12.1,9.9-22,22-22h284.2c-4,6.4-6.3,14-6.3,22.1v153.1v46H390H122h-15.4
	C106.6,241.2,106.6,42,106.6,42z M380,261.2v2c0,14.3-11.7,26-26,26H158c-14.3,0-26-11.7-26-26v-2H380z M50,211.7
	c0-3.6,2.9-6.5,6.5-6.5H86v36H61.5c-0.1,0-0.2,0-0.3,0h-4.6c-3.6,0-6.5-2.9-6.5-6.5C50,234.7,50,211.7,50,211.7z M492,302.7V474
	c0,9.9-8.1,18-18,18H38c-9.9,0-18-8.1-18-18V302.7c0-22.8,18.4-41.3,41.2-41.5l50.8,0v2c0,25.4,20.6,46,46,46h196
	c25.4,0,46-20.6,46-46v-2l50.8,0C473.6,261.4,492,279.9,492,302.7z"/>
<path class="st0" d="M229.4,49.2H140c-5.5,0-10,4.5-10,10v89.3c0,5.5,4.5,10,10,10h89.3c5.5,0,10-4.5,10-10V59.2
	C239.4,53.7,234.9,49.2,229.4,49.2z M219.4,138.5H150V69.2h69.3V138.5z"/>
<path class="st0" d="M371,49.2h-97c-5.5,0-10,4.5-10,10s4.5,10,10,10h97c5.5,0,10-4.5,10-10S376.5,49.2,371,49.2z"/>
<path class="st0" d="M371,93.2h-97c-5.5,0-10,4.5-10,10s4.5,10,10,10h97c5.5,0,10-4.5,10-10S376.5,93.2,371,93.2z"/>
<path class="st0" d="M371,137.2h-97c-5.5,0-10,4.5-10,10s4.5,10,10,10h97c5.5,0,10-4.5,10-10S376.5,137.2,371,137.2z"/>
<path class="st0" d="M371,181.2H181c-5.5,0-10,4.5-10,10s4.5,10,10,10h190c5.5,0,10-4.5,10-10S376.5,181.2,371,181.2z"/>
<path class="st0" d="M147.1,184.1c-1.9-1.9-4.4-2.9-7.1-2.9c-2.6,0-5.2,1.1-7.1,2.9c-1.9,1.9-2.9,4.4-2.9,7.1c0,2.6,1.1,5.2,2.9,7.1
	c1.9,1.9,4.4,2.9,7.1,2.9s5.2-1.1,7.1-2.9c1.9-1.9,2.9-4.4,2.9-7.1S149,186,147.1,184.1z"/>
</svg>
