<?xml version="1.0" encoding="utf-8"?>
<!-- Generator: Adobe Illustrator 24.3.0, SVG Export Plug-In . SVG Version: 6.00 Build 0)  -->
<svg version="1.1" id="Capa_1" xmlns="http://www.w3.org/2000/svg" xmlns:xlink="http://www.w3.org/1999/xlink" x="0px" y="0px"
	 viewBox="0 0 512 512" style="enable-background:new 0 0 512 512;" xml:space="preserve">
<style type="text/css">
	.st0{fill:#9818D6;}
</style>
<g>
	<g>
		<path class="st0" d="M250.7,400.9c-4.1,0-7.9-2.6-9.4-6.5c-1.5-3.9-0.3-8.5,3-11.2c3.1-2.6,7.6-3,11.1-1.1c3.7,2,5.9,6.3,5.1,10.4
			C259.8,397.3,255.6,400.9,250.7,400.9z"/>
		<path class="st0" d="M507.9,414.5l-89.4-65.2v-21.8c0-5.5-4.5-10-10-10H113.5v-26.5c0-3.8-2.1-7.2-5.5-8.9
			c-3.4-1.7-7.4-1.4-10.4,0.8L4.1,351.2c-2.6,1.9-4.1,4.9-4.1,8.1s1.5,6.2,4.1,8.1l89.4,65.2v21.8c0,5.5,4.5,10,10,10h294.9v26.5
			c0,3.8,2.1,7.2,5.5,8.9c1.4,0.7,3,1.1,4.5,1.1c2.1,0,4.1-0.6,5.9-1.9l93.5-68.2c2.6-1.9,4.1-4.9,4.1-8.1
			C512,419.4,510.5,416.4,507.9,414.5L507.9,414.5z M418.5,471.1v-16.8c0-5.5-4.5-10-10-10H113.5v-43.4l91.8,0c5.5,0,10-4.5,10-10
			c0-5.5-4.5-10-10-10l-101.8,0c-5.5,0-10,4.5-10,10v16.8L27,359.3l66.6-48.5v16.8c0,5.5,4.5,10,10,10h294.9v43.4l-102.7,0
			c-5.5,0-10,4.5-10,10s4.5,10,10,10l112.6,0c0,0,0.1,0,0.1,0c5.5,0,10-4.5,10-10v-16.8l66.6,48.5L418.5,471.1z"/>
		<path class="st0" d="M189.4,141c14.8-13.7,24-33.2,24-54.9c0-41.3-33.7-74.9-75-74.9s-75,33.6-75,74.9c0,21.7,9.3,41.2,24,54.9
			c-25.4,0.7-45.9,21.7-45.9,47.3V259c0,5.5,4.5,10,10,10h173.8c5.5,0,10-4.5,10-10v-70.8C235.3,162.6,214.8,141.7,189.4,141
			L189.4,141z M83.4,86.1c0-30.2,24.7-54.9,55-54.9s55,24.6,55,54.9c0,30.2-24.7,54.9-55,54.9S83.4,116.3,83.4,86.1z M215.3,249
			H61.5v-60.8c0-15.1,12.2-27.3,27.3-27.3H188c15.1,0,27.3,12.2,27.3,27.3L215.3,249L215.3,249z"/>
		<path class="st0" d="M424.6,141c14.8-13.7,24-33.2,24-54.9c0-41.3-33.7-74.9-75-74.9c-41.4,0-75,33.6-75,74.9
			c0,21.7,9.3,41.2,24,54.9c-25.4,0.7-45.9,21.7-45.9,47.3V259c0,5.5,4.5,10,10,10h173.8c5.5,0,10-4.5,10-10v-70.8
			C470.5,162.6,450,141.7,424.6,141z M318.6,86.1c0-30.2,24.7-54.9,55-54.9s55,24.6,55,54.9c0,30.2-24.7,54.9-55,54.9
			S318.6,116.3,318.6,86.1L318.6,86.1z M450.5,249H296.7v-60.8c0-15.1,12.2-27.3,27.3-27.3h99.2c15.1,0,27.3,12.2,27.3,27.3V249z"/>
	</g>
</g>
</svg>
