<?xml version="1.0" encoding="utf-8"?>
<!-- Generator: Adobe Illustrator 24.3.0, SVG Export Plug-In . SVG Version: 6.00 Build 0)  -->
<svg version="1.1" id="Capa_1" xmlns="http://www.w3.org/2000/svg" xmlns:xlink="http://www.w3.org/1999/xlink" x="0px" y="0px"
	 viewBox="0 0 512 512" style="enable-background:new 0 0 512 512;" xml:space="preserve">
<style type="text/css">
	.st0{fill:#9818D6;}
</style>
<g>
	<path class="st0" d="M377.4,210.4h56.3c4.4,17.1,20,29.8,38.5,29.8c21.9,0,39.8-17.8,39.8-39.8s-17.8-39.8-39.8-39.8
		c-18.5,0-34.1,12.7-38.5,29.8h-56.3v-33.5c0-24.4-19.8-44.2-44.2-44.2H115.6c0.5-9.6,8.4-17.3,18.1-17.3h300.1
		c4.4,17.1,20,29.8,38.5,29.8c21.9,0,39.8-17.8,39.8-39.8c0-21.9-17.8-39.8-39.8-39.8c-18.5,0-34.1,12.7-38.5,29.8H133.6
		c-20.7,0-37.6,16.6-38.1,37.3H44.2C19.8,112.7,0,132.5,0,156.9v212.7c0,24.4,19.8,44.2,44.2,44.2h105.7l-3.6,32.5h-24.4
		c-5.5,0-10,4.5-10,10s4.5,10,10,10h133.5c5.5,0,10-4.5,10-10s-4.5-10-10-10H231l-3.6-32.5h105.8c24.4,0,44.2-19.8,44.2-44.2
		c0-17.1,0-50.5,0-66.4h56.3c4.4,17.1,20,29.8,38.5,29.8c21.9,0,39.8-17.8,39.8-39.8s-17.8-39.8-39.8-39.8
		c-18.5,0-34.1,12.7-38.5,29.8h-56.3L377.4,210.4z M472.2,180.7c10.9,0,19.8,8.9,19.8,19.8c0,10.9-8.9,19.8-19.8,19.8
		s-19.8-8.9-19.8-19.8C452.4,189.5,461.3,180.7,472.2,180.7z M472.2,65.7c10.9,0,19.8,8.9,19.8,19.8c0,10.9-8.9,19.8-19.8,19.8
		s-19.8-8.9-19.8-19.8C452.4,74.5,461.3,65.7,472.2,65.7z M472.2,273.5c10.9,0,19.8,8.9,19.8,19.8s-8.9,19.8-19.8,19.8
		s-19.8-8.9-19.8-19.8S461.3,273.5,472.2,273.5z M210.8,446.3h-44.4l3.6-32.5h37.2L210.8,446.3z M357.4,340.4h-33.1
		c-5.5,0-10,4.5-10,10s4.5,10,10,10h33.1v9.2c0,13.4-10.9,24.2-24.2,24.2c-10,0-274.9,0-289,0C30.9,393.9,20,383,20,369.6v-9.2
		h224.3c5.5,0,10-4.5,10-10s-4.5-10-10-10H20V156.9c0-13.4,10.9-24.2,24.2-24.2h51.3v35H64.9c-14.7,0-26.6,11.9-26.6,26.6v103.4
		c0,14.7,11.9,26.6,26.6,26.6h81.3c14.7,0,26.6-11.9,26.6-26.6V194.3c0-14.7-11.9-26.6-26.6-26.6h-30.7v-35h217.7
		c13.4,0,24.2,10.9,24.2,24.2v33.5h-18.3c0-12.6-10.3-22.8-22.8-22.8H208.5c-12.6,0-22.8,10.2-22.8,22.8v19.9
		c0,12.6,10.2,22.8,22.8,22.8h107.8c12.6,0,22.8-10.2,22.8-22.8h18.3v72.8h-18.3c-0.9-11.8-10.8-21-22.8-21H208.5
		c-12.6,0-22.8,10.2-22.8,22.8v16.4c0,12.6,10.2,22.8,22.8,22.8h107.8c12,0,21.8-9.3,22.8-21h18.3L357.4,340.4L357.4,340.4z
		 M146.2,187.7c3.6,0,6.6,3,6.6,6.6v103.4c0,3.6-3,6.6-6.6,6.6H64.9c-3.6,0-6.6-3-6.6-6.6V194.3c0-3.6,3-6.6,6.6-6.6L146.2,187.7z
		 M319.2,190.5v19.9c0,1.6-1.3,2.8-2.8,2.8H208.5c-1.6,0-2.8-1.3-2.8-2.8v-19.9c0-1.6,1.3-2.8,2.8-2.8h107.8
		C317.9,187.7,319.2,188.9,319.2,190.5L319.2,190.5z M319.2,285.1v16.4c0,1.6-1.3,2.8-2.8,2.8H208.5c-1.6,0-2.8-1.3-2.8-2.8v-16.4
		c0-1.6,1.3-2.8,2.8-2.8h107.8C317.9,282.2,319.2,283.5,319.2,285.1L319.2,285.1z"/>
	<path class="st0" d="M202.4,367.7h-27.3c-5.5,0-10,4.5-10,10s4.5,10,10,10h27.3c5.5,0,10-4.5,10-10S207.9,367.7,202.4,367.7z"/>
	<path class="st0" d="M81.4,277.4c4.4,3.4,10.7,2.6,14-1.8l10.1-13.2l10.1,13.2c3.4,4.4,9.6,5.2,14,1.8c4.4-3.4,5.2-9.6,1.8-14
		L118.2,246l13.4-17.4c3.4-4.4,2.5-10.7-1.8-14c-4.4-3.4-10.7-2.5-14,1.8l-10.1,13.2l-10.1-13.2c-3.4-4.4-9.6-5.2-14-1.8
		c-4.4,3.4-5.2,9.6-1.8,14L92.9,246l-13.4,17.4C76.2,267.7,77,274,81.4,277.4L81.4,277.4z"/>
	<path class="st0" d="M284.4,340.4L284.4,340.4c-5.5,0-10,4.5-10,10s4.5,10,10,10s10-4.5,10-10S289.9,340.4,284.4,340.4z"/>
</g>
</svg>
